<svg width="57" height="56" viewBox="0 0 57 56" fill="none" xmlns="http://www.w3.org/2000/svg">
<rect x="0.5" width="56" height="56" rx="28" fill="white" fill-opacity="0.3"/>
<path fill-rule="evenodd" clip-rule="evenodd" d="M13.834 15.7827C13.834 15.1327 14.0922 14.5094 14.5518 14.0498C15.0114 13.5902 15.6347 13.332 16.2847 13.332H40.714C41.0361 13.3315 41.3551 13.3945 41.6528 13.5175C41.9506 13.6404 42.2211 13.8208 42.449 14.0485C42.6769 14.2761 42.8576 14.5465 42.9809 14.844C43.1041 15.1416 43.1675 15.4606 43.1673 15.7827V40.212C43.1677 40.5342 43.1045 40.8533 42.9814 41.151C42.8583 41.4487 42.6777 41.7192 42.45 41.9471C42.2223 42.175 41.9518 42.3557 41.6542 42.479C41.3565 42.6022 41.0375 42.6655 40.7153 42.6654H16.2847C15.9627 42.6654 15.6439 42.6019 15.3465 42.4787C15.0491 42.3555 14.7789 42.1748 14.5513 41.9471C14.3237 41.7194 14.1432 41.4491 14.0201 41.1516C13.8971 40.8541 13.8338 40.5353 13.834 40.2134V15.7827ZM25.4446 24.516H29.4166V26.5107C29.99 25.364 31.4566 24.332 33.6606 24.332C37.886 24.332 38.8873 26.616 38.8873 30.8067V38.5694H34.6113V31.7614C34.6113 29.3747 34.038 28.028 32.582 28.028C30.562 28.028 29.722 29.48 29.722 31.7614V38.5694H25.4446V24.516ZM18.1113 38.3867H22.3886V24.332H18.1113V38.3854V38.3867ZM23.0007 19.748C23.0087 20.1143 22.9435 20.4784 22.809 20.8191C22.6744 21.1598 22.4731 21.4702 22.217 21.7321C21.9608 21.9939 21.6549 22.202 21.3173 22.344C20.9796 22.4861 20.617 22.5593 20.2507 22.5593C19.8843 22.5593 19.5217 22.4861 19.184 22.344C18.8464 22.202 18.5405 21.9939 18.2843 21.7321C18.0282 21.4702 17.8269 21.1598 17.6923 20.8191C17.5578 20.4784 17.4926 20.1143 17.5007 19.748C17.5165 19.0292 17.8132 18.3451 18.3272 17.8423C18.8412 17.3395 19.5316 17.0579 20.2507 17.0579C20.9697 17.0579 21.6601 17.3395 22.1741 17.8423C22.6881 18.3451 22.9848 19.0292 23.0007 19.748Z" fill="#D9D9D9"/>
</svg>
