<svg width="40" height="40" viewBox="0 0 40 40" fill="none" xmlns="http://www.w3.org/2000/svg">
<rect width="40" height="40" rx="20" fill="#C79464"/>
<path d="M31.6435 12.9356C30.8085 13.3056 29.9115 13.5556 28.9685 13.6686C29.9415 13.0864 30.6694 12.1701 31.0165 11.0906C30.1023 11.6336 29.1018 12.0158 28.0585 12.2206C27.3569 11.4715 26.4276 10.9749 25.4148 10.8081C24.4021 10.6412 23.3626 10.8134 22.4577 11.2979C21.5529 11.7823 20.8333 12.552 20.4107 13.4873C19.988 14.4227 19.886 15.4714 20.1205 16.4706C18.2682 16.3776 16.4561 15.8962 14.8019 15.0575C13.1477 14.2189 11.6883 13.0418 10.5185 11.6026C10.1185 12.2926 9.8885 13.0926 9.8885 13.9446C9.88805 14.7116 10.0769 15.4669 10.4384 16.1433C10.7998 16.8198 11.3227 17.3967 11.9605 17.8226C11.2208 17.7991 10.4974 17.5992 9.8505 17.2396V17.2996C9.85043 18.3754 10.2225 19.418 10.9037 20.2506C11.5848 21.0832 12.5331 21.6545 13.5875 21.8676C12.9013 22.0533 12.1818 22.0807 11.4835 21.9476C11.781 22.8732 12.3605 23.6826 13.1409 24.2625C13.9212 24.8424 14.8634 25.1638 15.8355 25.1816C14.1853 26.477 12.1474 27.1797 10.0495 27.1766C9.67788 27.1767 9.30658 27.155 8.9375 27.1116C11.067 28.4808 13.5458 29.2074 16.0775 29.2046C24.6475 29.2046 29.3325 22.1066 29.3325 15.9506C29.3325 15.7506 29.3275 15.5486 29.3185 15.3486C30.2298 14.6896 31.0164 13.8735 31.6415 12.9386L31.6435 12.9356Z" fill="#F8F8F8"/>
</svg>
