<svg width="40" height="40" viewBox="0 0 40 40" fill="none" xmlns="http://www.w3.org/2000/svg">
<rect width="40" height="40" rx="20" fill="#C79464"/>
<path d="M28.9471 16.3045C28.937 15.5471 28.7952 14.7972 28.5281 14.0885C28.2964 13.4906 27.9426 12.9477 27.4892 12.4943C27.0359 12.0409 26.4929 11.6871 25.8951 11.4555C25.1954 11.1928 24.4563 11.0508 23.7091 11.0355C22.7471 10.9925 22.4421 10.9805 20.0001 10.9805C17.5581 10.9805 17.2451 10.9805 16.2901 11.0355C15.5432 11.0509 14.8044 11.1929 14.1051 11.4555C13.5071 11.687 12.9641 12.0407 12.5107 12.4941C12.0573 12.9475 11.7036 13.4905 11.4721 14.0885C11.2089 14.7876 11.0672 15.5266 11.0531 16.2735C11.0101 17.2365 10.9971 17.5415 10.9971 19.9835C10.9971 22.4255 10.9971 22.7375 11.0531 23.6935C11.0681 24.4415 11.2091 25.1795 11.4721 25.8805C11.7039 26.4782 12.058 27.021 12.5115 27.4742C12.965 27.9274 13.5081 28.281 14.1061 28.5125C14.8035 28.7857 15.5424 28.9378 16.2911 28.9625C17.2541 29.0055 17.5591 29.0185 20.0011 29.0185C22.4431 29.0185 22.7561 29.0185 23.7111 28.9625C24.4582 28.9478 25.1974 28.8061 25.8971 28.5435C26.4948 28.3116 27.0376 27.9576 27.4909 27.5043C27.9442 27.051 28.2982 26.5082 28.5301 25.9105C28.7931 25.2105 28.9341 24.4725 28.9491 23.7235C28.9921 22.7615 29.0051 22.4565 29.0051 20.0135C29.0031 17.5715 29.0031 17.2615 28.9471 16.3045ZM19.9941 24.6015C17.4401 24.6015 15.3711 22.5325 15.3711 19.9785C15.3711 17.4245 17.4401 15.3555 19.9941 15.3555C21.2202 15.3555 22.396 15.8425 23.263 16.7095C24.13 17.5765 24.6171 18.7524 24.6171 19.9785C24.6171 21.2046 24.13 22.3804 23.263 23.2474C22.396 24.1144 21.2202 24.6015 19.9941 24.6015ZM24.8011 16.2625C24.6595 16.2626 24.5192 16.2348 24.3884 16.1807C24.2575 16.1266 24.1386 16.0472 24.0385 15.947C23.9384 15.8469 23.859 15.728 23.8049 15.5972C23.7507 15.4663 23.7229 15.3261 23.7231 15.1845C23.7231 15.043 23.7509 14.9029 23.8051 14.7721C23.8592 14.6414 23.9386 14.5226 24.0387 14.4226C24.1387 14.3225 24.2575 14.2431 24.3882 14.189C24.519 14.1348 24.6591 14.107 24.8006 14.107C24.9421 14.107 25.0822 14.1348 25.2129 14.189C25.3436 14.2431 25.4624 14.3225 25.5625 14.4226C25.6625 14.5226 25.7419 14.6414 25.7961 14.7721C25.8502 14.9029 25.8781 15.043 25.8781 15.1845C25.8781 15.7805 25.3961 16.2625 24.8011 16.2625Z" fill="#F8F8F8"/>
<path d="M19.9942 22.9826C21.6527 22.9826 22.9972 21.6381 22.9972 19.9796C22.9972 18.3211 21.6527 16.9766 19.9942 16.9766C18.3357 16.9766 16.9912 18.3211 16.9912 19.9796C16.9912 21.6381 18.3357 22.9826 19.9942 22.9826Z" fill="#F8F8F8"/>
</svg>
