<svg width="57" height="56" viewBox="0 0 57 56" fill="none" xmlns="http://www.w3.org/2000/svg">
<rect x="0.5" width="56" height="56" rx="28" fill="white" fill-opacity="0.3"/>
<path d="M40.4294 23.0752C40.416 22.0654 40.2269 21.0656 39.8708 20.1206C39.5619 19.3234 39.0901 18.5995 38.4857 17.995C37.8812 17.3905 37.1572 16.9188 36.3601 16.6099C35.4272 16.2597 34.4417 16.0704 33.4454 16.0499C32.1628 15.9926 31.7561 15.9766 28.5001 15.9766C25.2441 15.9766 24.8268 15.9766 23.5534 16.0499C22.5576 16.0705 21.5726 16.2599 20.6401 16.6099C19.8428 16.9185 19.1188 17.3902 18.5143 17.9947C17.9098 18.5993 17.4381 19.3233 17.1294 20.1206C16.7785 21.0527 16.5896 22.038 16.5708 23.0339C16.5134 24.3179 16.4961 24.7246 16.4961 27.9806C16.4961 31.2366 16.4961 31.6526 16.5708 32.9272C16.5908 33.9246 16.7788 34.9086 17.1294 35.8432C17.4386 36.6402 17.9106 37.364 18.5153 37.9683C19.1201 38.5725 19.8442 39.044 20.6414 39.3526C21.5713 39.7168 22.5566 39.9197 23.5548 39.9526C24.8388 40.0099 25.2454 40.0272 28.5014 40.0272C31.7574 40.0272 32.1748 40.0272 33.4481 39.9526C34.4443 39.9329 35.4299 39.744 36.3628 39.3939C37.1597 39.0847 37.8834 38.6128 38.4879 38.0084C39.0923 37.4039 39.5642 36.6802 39.8734 35.8832C40.2241 34.9499 40.4121 33.9659 40.4321 32.9672C40.4894 31.6846 40.5068 31.2779 40.5068 28.0206C40.5041 24.7646 40.5041 24.3512 40.4294 23.0752ZM28.4921 34.1379C25.0868 34.1379 22.3281 31.3792 22.3281 27.9739C22.3281 24.5686 25.0868 21.8099 28.4921 21.8099C30.1269 21.8099 31.6947 22.4593 32.8507 23.6153C34.0067 24.7713 34.6561 26.3391 34.6561 27.9739C34.6561 29.6087 34.0067 31.1765 32.8507 32.3325C31.6947 33.4885 30.1269 34.1379 28.4921 34.1379ZM34.9014 23.0192C34.7126 23.0194 34.5256 22.9823 34.3512 22.9102C34.1767 22.838 34.0182 22.7321 33.8847 22.5986C33.7512 22.4651 33.6453 22.3066 33.5731 22.1321C33.501 21.9577 33.4639 21.7707 33.4641 21.5819C33.4641 21.3932 33.5013 21.2064 33.5735 21.0321C33.6457 20.8578 33.7515 20.6994 33.8849 20.566C34.0183 20.4326 34.1767 20.3268 34.351 20.2546C34.5253 20.1824 34.7121 20.1452 34.9008 20.1452C35.0894 20.1452 35.2762 20.1824 35.4506 20.2546C35.6249 20.3268 35.7832 20.4326 35.9166 20.566C36.05 20.6994 36.1559 20.8578 36.2281 21.0321C36.3003 21.2064 36.3374 21.3932 36.3374 21.5819C36.3374 22.3766 35.6948 23.0192 34.9014 23.0192Z" fill="#D9D9D9"/>
<path d="M28.4923 31.9768C30.7036 31.9768 32.4963 30.1841 32.4963 27.9728C32.4963 25.7614 30.7036 23.9688 28.4923 23.9688C26.2809 23.9688 24.4883 25.7614 24.4883 27.9728C24.4883 30.1841 26.2809 31.9768 28.4923 31.9768Z" fill="#D9D9D9"/>
</svg>
