<svg width="57" height="56" viewBox="0 0 57 56" fill="none" xmlns="http://www.w3.org/2000/svg">
<rect x="0.5" width="56" height="56" rx="28" fill="white" fill-opacity="0.3"/>
<g clip-path="url(#clip0_449_832)">
<path d="M44.0247 18.5834C42.9113 19.0768 41.7153 19.4101 40.458 19.5608C41.7553 18.7845 42.7259 17.5627 43.1887 16.1234C41.9698 16.8474 40.6358 17.357 39.2447 17.6301C38.3092 16.6312 37.0701 15.9692 35.7198 15.7467C34.3694 15.5242 32.9835 15.7538 31.777 16.3998C30.5705 17.0457 29.611 18.0719 29.0475 19.319C28.484 20.5661 28.348 21.9644 28.6607 23.2968C26.1909 23.1727 23.7748 22.5308 21.5692 21.4126C19.3636 20.2944 17.4178 18.725 15.858 16.8061C15.3247 17.7261 15.018 18.7928 15.018 19.9288C15.0174 20.9514 15.2692 21.9584 15.7512 22.8604C16.2331 23.7624 16.9302 24.5315 17.7807 25.0994C16.7944 25.068 15.8298 24.8015 14.9673 24.3221V24.4021C14.9672 25.8364 15.4634 27.2266 16.3716 28.3367C17.2798 29.4469 18.5441 30.2087 19.95 30.4928C19.035 30.7404 18.0758 30.7768 17.1447 30.5994C17.5413 31.8336 18.314 32.9128 19.3545 33.686C20.395 34.4592 21.6512 34.8877 22.9473 34.9114C20.7471 36.6386 18.0298 37.5755 15.2327 37.5714C14.7372 37.5716 14.2421 37.5426 13.75 37.4848C16.5893 39.3103 19.8945 40.2792 23.27 40.2754C34.6967 40.2754 40.9433 30.8114 40.9433 22.6034C40.9433 22.3368 40.9367 22.0674 40.9247 21.8008C42.1397 20.9221 43.1885 19.8339 44.022 18.5874L44.0247 18.5834Z" fill="#D9D9D9"/>
</g>
<defs>
<clipPath id="clip0_449_832">
<rect width="32" height="32" fill="white" transform="translate(12.5 12)"/>
</clipPath>
</defs>
</svg>
