<svg width="919" height="96" viewBox="0 0 919 96" fill="none" xmlns="http://www.w3.org/2000/svg">
<g opacity="0.3" filter="url(#filter0_f_449_717)">
<path d="M7.22 68.848H24.5V70H5.94V24.944H7.22V68.848ZM58.646 34.992C61.846 34.992 64.726 35.7173 67.286 37.168C69.846 38.576 71.8513 40.624 73.302 43.312C74.7527 45.9573 75.478 49.0933 75.478 52.72C75.478 56.3467 74.7527 59.504 73.302 62.192C71.8513 64.8373 69.846 66.8853 67.286 68.336C64.726 69.744 61.846 70.448 58.646 70.448C55.446 70.448 52.566 69.744 50.006 68.336C47.446 66.8853 45.4193 64.8373 43.926 62.192C42.4753 59.504 41.75 56.3467 41.75 52.72C41.75 49.0933 42.4753 45.9573 43.926 43.312C45.4193 40.624 47.446 38.576 50.006 37.168C52.566 35.7173 55.446 34.992 58.646 34.992ZM58.646 36.144C55.8727 36.144 53.2913 36.7627 50.902 38C48.5553 39.1947 46.6567 41.0507 45.206 43.568C43.7553 46.0427 43.03 49.0933 43.03 52.72C43.03 56.3467 43.7553 59.4187 45.206 61.936C46.6567 64.4107 48.5553 66.2667 50.902 67.504C53.2913 68.6987 55.8727 69.296 58.646 69.296C61.4193 69.296 63.9793 68.6987 66.326 67.504C68.6727 66.2667 70.5713 64.4107 72.022 61.936C73.4727 59.4613 74.198 56.3893 74.198 52.72C74.198 49.0507 73.4727 45.9787 72.022 43.504C70.5713 41.0293 68.6727 39.1947 66.326 38C63.9793 36.7627 61.4193 36.144 58.646 36.144ZM111.795 34.672C115.849 34.672 119.177 35.9307 121.78 38.448C124.382 40.9653 125.684 44.7627 125.684 49.84V70H124.468V49.712C124.468 45.1893 123.337 41.7547 121.076 39.408C118.814 37.0187 115.721 35.824 111.795 35.824C107.7 35.824 104.414 37.168 101.939 39.856C99.4648 42.5013 98.2275 46.4267 98.2275 51.632V70H96.9475V35.44H98.2275V45.168C99.0382 41.6693 100.681 39.0453 103.156 37.296C105.673 35.5467 108.553 34.672 111.795 34.672ZM163.652 34.992C167.62 34.992 170.969 36.0587 173.7 38.192C176.473 40.3253 178.329 43.12 179.268 46.576V35.44H180.484V71.28C180.484 74.48 179.78 77.2533 178.372 79.6C176.964 81.9893 175.087 83.8027 172.74 85.04C170.436 86.2773 167.919 86.896 165.188 86.896C161.007 86.896 157.529 85.872 154.756 83.824C152.025 81.8187 150.148 79.088 149.124 75.632H150.404C151.385 78.7467 153.113 81.2 155.588 82.992C158.105 84.8267 161.305 85.744 165.188 85.744C167.833 85.744 170.223 85.1467 172.356 83.952C174.489 82.7573 176.175 81.072 177.412 78.896C178.649 76.72 179.268 74.1813 179.268 71.28V58.864C178.329 62.32 176.473 65.1147 173.7 67.248C170.969 69.3813 167.62 70.448 163.652 70.448C160.367 70.448 157.444 69.744 154.884 68.336C152.324 66.8853 150.34 64.8373 148.932 62.192C147.524 59.504 146.82 56.3467 146.82 52.72C146.82 49.0933 147.524 45.9573 148.932 43.312C150.34 40.624 152.324 38.576 154.884 37.168C157.444 35.7173 160.367 34.992 163.652 34.992ZM163.652 36.144C160.495 36.144 157.743 36.8053 155.396 38.128C153.092 39.4507 151.3 41.3707 150.02 43.888C148.74 46.3627 148.1 49.3067 148.1 52.72C148.1 56.1333 148.74 59.0987 150.02 61.616C151.3 64.0907 153.092 65.9893 155.396 67.312C157.743 68.6347 160.495 69.296 163.652 69.296C166.639 69.296 169.305 68.6133 171.652 67.248C174.041 65.84 175.897 63.8987 177.22 61.424C178.585 58.9067 179.268 56.0053 179.268 52.72C179.268 49.4347 178.585 46.5547 177.22 44.08C175.897 41.5627 174.041 39.6213 171.652 38.256C169.305 36.848 166.639 36.144 163.652 36.144ZM235.52 68.848H252.8V70H234.24V24.944H235.52V68.848ZM270.626 24.88C270.626 24.368 270.775 23.9627 271.074 23.664C271.415 23.3227 271.821 23.152 272.29 23.152C272.759 23.152 273.143 23.3227 273.442 23.664C273.783 23.9627 273.954 24.368 273.954 24.88C273.954 25.392 273.783 25.8187 273.442 26.16C273.143 26.4587 272.759 26.608 272.29 26.608C271.821 26.608 271.415 26.4587 271.074 26.16C270.775 25.8187 270.626 25.392 270.626 24.88ZM272.93 35.44V70H271.65V35.44H272.93ZM307.069 67.76L320.829 35.44H322.237L307.517 70H306.557L291.837 35.44H293.245L307.069 67.76ZM356.135 69.296C360.018 69.296 363.282 68.3147 365.927 66.352C368.572 64.3893 370.172 61.7013 370.727 58.288H372.007C371.41 61.9147 369.703 64.8587 366.887 67.12C364.114 69.3387 360.53 70.448 356.135 70.448C352.935 70.448 350.076 69.744 347.559 68.336C345.042 66.928 343.058 64.88 341.607 62.192C340.199 59.504 339.495 56.3467 339.495 52.72C339.495 49.0933 340.199 45.936 341.607 43.248C343.058 40.56 345.042 38.512 347.559 37.104C350.076 35.696 352.935 34.992 356.135 34.992C359.506 34.992 362.386 35.7173 364.775 37.168C367.164 38.576 368.956 40.4107 370.151 42.672C371.388 44.9333 372.007 47.3227 372.007 49.84C372.007 51.12 371.922 52.272 371.751 53.296H340.775C340.818 56.8373 341.543 59.8027 342.951 62.192C344.402 64.5813 346.279 66.3733 348.583 67.568C350.887 68.72 353.404 69.296 356.135 69.296ZM356.135 36.144C353.404 36.144 350.887 36.7413 348.583 37.936C346.279 39.088 344.402 40.8587 342.951 43.248C341.543 45.6373 340.818 48.6027 340.775 52.144H370.855C371.068 48.6027 370.492 45.6373 369.127 43.248C367.804 40.8587 365.97 39.088 363.623 37.936C361.319 36.7413 358.823 36.144 356.135 36.144ZM447.525 24.944V26.096H434.405V70H433.125V26.096H420.005V24.944H447.525ZM481.236 34.672C485.289 34.672 488.617 35.9307 491.22 38.448C493.822 40.9653 495.124 44.7627 495.124 49.84V70H493.908V49.712C493.908 45.1893 492.777 41.7547 490.516 39.408C488.254 37.0187 485.161 35.824 481.236 35.824C477.14 35.824 473.854 37.168 471.38 39.856C468.905 42.5013 467.668 46.4267 467.668 51.632V70H466.388V22.64H467.668V45.168C468.478 41.6693 470.121 39.0453 472.596 37.296C475.113 35.5467 477.993 34.672 481.236 34.672ZM532.9 69.296C536.783 69.296 540.047 68.3147 542.692 66.352C545.337 64.3893 546.937 61.7013 547.492 58.288H548.772C548.175 61.9147 546.468 64.8587 543.652 67.12C540.879 69.3387 537.295 70.448 532.9 70.448C529.7 70.448 526.841 69.744 524.324 68.336C521.807 66.928 519.823 64.88 518.372 62.192C516.964 59.504 516.26 56.3467 516.26 52.72C516.26 49.0933 516.964 45.936 518.372 43.248C519.823 40.56 521.807 38.512 524.324 37.104C526.841 35.696 529.7 34.992 532.9 34.992C536.271 34.992 539.151 35.7173 541.54 37.168C543.929 38.576 545.721 40.4107 546.916 42.672C548.153 44.9333 548.772 47.3227 548.772 49.84C548.772 51.12 548.687 52.272 548.516 53.296H517.54C517.583 56.8373 518.308 59.8027 519.716 62.192C521.167 64.5813 523.044 66.3733 525.348 67.568C527.652 68.72 530.169 69.296 532.9 69.296ZM532.9 36.144C530.169 36.144 527.652 36.7413 525.348 37.936C523.044 39.088 521.167 40.8587 519.716 43.248C518.308 45.6373 517.583 48.6027 517.54 52.144H547.62C547.833 48.6027 547.257 45.6373 545.892 43.248C544.569 40.8587 542.735 39.088 540.388 37.936C538.084 36.7413 535.588 36.144 532.9 36.144ZM641.058 26.224V70H639.778V29.36L621.666 70H620.386L602.21 29.488V70H600.93V26.224H602.21L621.026 68.272L639.778 26.224H641.058ZM661.338 35.44L675.29 68.144L688.154 35.44H689.562L669.85 86.256H668.25L674.586 70.064L659.93 35.44H661.338ZM711.189 36.72V60.912C711.189 63.0027 711.424 64.6027 711.893 65.712C712.363 66.8213 713.109 67.6107 714.133 68.08C715.157 68.5067 716.587 68.72 718.421 68.72H722.069V70H718.293C715.307 70 713.152 69.3173 711.829 67.952C710.549 66.5867 709.909 64.24 709.909 60.912V36.72H704.277V35.44H709.909V26.608H711.189V35.44H722.069V36.72H711.189ZM757.07 34.672C761.124 34.672 764.452 35.9307 767.054 38.448C769.657 40.9653 770.958 44.7627 770.958 49.84V70H769.742V49.712C769.742 45.1893 768.612 41.7547 766.35 39.408C764.089 37.0187 760.996 35.824 757.07 35.824C752.974 35.824 749.689 37.168 747.214 39.856C744.74 42.5013 743.502 46.4267 743.502 51.632V70H742.222V22.64H743.502V45.168C744.313 41.6693 745.956 39.0453 748.43 37.296C750.948 35.5467 753.828 34.672 757.07 34.672ZM792.671 24.88C792.671 24.368 792.82 23.9627 793.119 23.664C793.46 23.3227 793.866 23.152 794.335 23.152C794.804 23.152 795.188 23.3227 795.487 23.664C795.828 23.9627 795.999 24.368 795.999 24.88C795.999 25.392 795.828 25.8187 795.487 26.16C795.188 26.4587 794.804 26.608 794.335 26.608C793.866 26.608 793.46 26.4587 793.119 26.16C792.82 25.8187 792.671 25.392 792.671 24.88ZM794.975 35.44V70H793.695V35.44H794.975ZM833.082 34.992C837.477 34.992 841.061 36.1227 843.834 38.384C846.65 40.6027 848.357 43.5253 848.954 47.152H847.674C847.12 43.7387 845.52 41.0507 842.874 39.088C840.229 37.1253 836.965 36.144 833.082 36.144C830.309 36.144 827.749 36.7627 825.402 38C823.098 39.1947 821.242 41.0293 819.834 43.504C818.426 45.9787 817.722 49.0507 817.722 52.72C817.722 56.3893 818.426 59.4613 819.834 61.936C821.242 64.4107 823.098 66.2667 825.402 67.504C827.749 68.6987 830.309 69.296 833.082 69.296C836.965 69.296 840.229 68.3147 842.874 66.352C845.52 64.3893 847.12 61.7013 847.674 58.288H848.954C848.357 61.9147 846.65 64.8587 843.834 67.12C841.061 69.3387 837.477 70.448 833.082 70.448C829.882 70.448 827.024 69.744 824.506 68.336C821.989 66.928 820.005 64.88 818.554 62.192C817.146 59.504 816.442 56.3467 816.442 52.72C816.442 49.0933 817.146 45.936 818.554 43.248C820.005 40.56 821.989 38.512 824.506 37.104C827.024 35.696 829.882 34.992 833.082 34.992ZM879.67 34.992C883.083 34.992 885.857 35.9307 887.99 37.808C890.123 39.6853 891.382 42.2667 891.766 45.552H890.486C890.187 42.9067 889.121 40.688 887.286 38.896C885.451 37.0613 882.913 36.144 879.67 36.144C876.811 36.144 874.55 36.8693 872.886 38.32C871.265 39.728 870.454 41.6053 870.454 43.952C870.454 45.7013 870.902 47.088 871.798 48.112C872.737 49.0933 873.867 49.84 875.19 50.352C876.513 50.8213 878.326 51.3333 880.63 51.888C883.147 52.4853 885.153 53.0827 886.646 53.68C888.139 54.2347 889.398 55.152 890.422 56.432C891.489 57.6693 892.022 59.3547 892.022 61.488C892.022 64.1333 891.083 66.288 889.206 67.952C887.371 69.616 884.961 70.448 881.974 70.448C878.305 70.448 875.275 69.5093 872.886 67.632C870.539 65.712 869.174 63.1307 868.79 59.888H870.07C870.326 62.576 871.478 64.816 873.526 66.608C875.617 68.4 878.454 69.296 882.038 69.296C884.769 69.296 886.902 68.5707 888.438 67.12C889.974 65.6693 890.742 63.792 890.742 61.488C890.742 59.6533 890.273 58.2027 889.334 57.136C888.395 56.0267 887.222 55.216 885.814 54.704C884.406 54.1493 882.55 53.616 880.246 53.104C877.814 52.5493 875.851 51.9947 874.358 51.44C872.907 50.8427 871.67 49.968 870.646 48.816C869.665 47.6213 869.174 46 869.174 43.952C869.174 41.2213 870.134 39.0453 872.054 37.424C873.974 35.8027 876.513 34.992 879.67 34.992ZM913.231 66.864V70H910.031V66.864H913.231Z" fill="#D9D9D9"/>
</g>
<path d="M186.532 63.816H194.948V65H185.092V42.44H186.532V63.816ZM216.17 47.4C217.812 47.4 219.284 47.7627 220.586 48.488C221.887 49.192 222.9 50.216 223.626 51.56C224.372 52.904 224.746 54.4827 224.746 56.296C224.746 58.1307 224.372 59.72 223.626 61.064C222.9 62.408 221.887 63.4427 220.586 64.168C219.284 64.872 217.812 65.224 216.17 65.224C214.548 65.224 213.087 64.872 211.786 64.168C210.484 63.4427 209.46 62.408 208.714 61.064C207.967 59.6987 207.594 58.1093 207.594 56.296C207.594 54.4827 207.967 52.904 208.714 51.56C209.46 50.216 210.484 49.192 211.786 48.488C213.087 47.7627 214.548 47.4 216.17 47.4ZM216.17 48.68C214.911 48.68 213.738 48.9573 212.65 49.512C211.583 50.0667 210.719 50.92 210.058 52.072C209.396 53.2027 209.066 54.6107 209.066 56.296C209.066 57.9813 209.396 59.4 210.058 60.552C210.719 61.704 211.583 62.5573 212.65 63.112C213.738 63.6667 214.911 63.944 216.17 63.944C217.428 63.944 218.591 63.6667 219.658 63.112C220.746 62.5573 221.62 61.704 222.282 60.552C222.943 59.4 223.274 57.9813 223.274 56.296C223.274 54.6107 222.943 53.2027 222.282 52.072C221.642 50.92 220.778 50.0667 219.69 49.512C218.623 48.9573 217.45 48.68 216.17 48.68ZM247.417 47.272C249.465 47.272 251.129 47.912 252.409 49.192C253.689 50.472 254.329 52.36 254.329 54.856V65H252.889V54.92C252.889 52.8293 252.367 51.24 251.321 50.152C250.276 49.0427 248.847 48.488 247.033 48.488C245.156 48.488 243.641 49.1067 242.489 50.344C241.359 51.56 240.793 53.3627 240.793 55.752V65H239.353V47.624H240.793V52.2C241.22 50.5787 242.031 49.352 243.225 48.52C244.441 47.688 245.839 47.272 247.417 47.272ZM277.018 47.4C278.917 47.4 280.517 47.9013 281.818 48.904C283.119 49.8853 284.005 51.1867 284.474 52.808V47.624H285.914V65.512C285.914 67.112 285.562 68.52 284.858 69.736C284.175 70.952 283.226 71.88 282.01 72.52C280.815 73.1813 279.493 73.512 278.042 73.512C275.866 73.512 274.063 72.9787 272.634 71.912C271.226 70.8667 270.287 69.4373 269.818 67.624H271.226C271.653 69.032 272.442 70.152 273.594 70.984C274.746 71.816 276.207 72.232 277.978 72.232C279.194 72.232 280.293 71.9547 281.274 71.4C282.277 70.8667 283.055 70.088 283.61 69.064C284.186 68.0613 284.474 66.8773 284.474 65.512V59.816C284.005 61.4373 283.119 62.7493 281.818 63.752C280.517 64.7333 278.917 65.224 277.018 65.224C275.397 65.224 273.957 64.872 272.698 64.168C271.461 63.4427 270.49 62.408 269.786 61.064C269.082 59.6987 268.73 58.1093 268.73 56.296C268.73 54.4827 269.082 52.904 269.786 51.56C270.49 50.216 271.461 49.192 272.698 48.488C273.957 47.7627 275.397 47.4 277.018 47.4ZM277.338 48.68C275.162 48.68 273.423 49.3627 272.122 50.728C270.842 52.0933 270.202 53.9493 270.202 56.296C270.202 58.664 270.842 60.5307 272.122 61.896C273.402 63.2613 275.141 63.944 277.338 63.944C278.703 63.944 279.93 63.6347 281.018 63.016C282.106 62.376 282.949 61.48 283.546 60.328C284.165 59.1547 284.474 57.8107 284.474 56.296C284.474 54.7813 284.165 53.448 283.546 52.296C282.949 51.144 282.106 50.2587 281.018 49.64C279.93 49 278.703 48.68 277.338 48.68ZM321.794 63.816H330.21V65H320.354V42.44H321.794V63.816ZM343.176 42.376C343.176 42.0347 343.283 41.7573 343.496 41.544C343.731 41.3093 344.03 41.192 344.392 41.192C344.755 41.192 345.054 41.3093 345.288 41.544C345.523 41.7573 345.64 42.0347 345.64 42.376C345.64 42.7387 345.523 43.0373 345.288 43.272C345.054 43.4853 344.755 43.592 344.392 43.592C344.03 43.592 343.731 43.4853 343.496 43.272C343.283 43.0373 343.176 42.7387 343.176 42.376ZM345.128 47.624V65H343.688V47.624H345.128ZM366.537 63.176L372.905 47.624H374.473L367.273 65H365.737L358.569 47.624H360.105L366.537 63.176ZM395.47 64.008C397.22 64.008 398.692 63.5707 399.886 62.696C401.081 61.8 401.806 60.584 402.062 59.048H403.566C403.246 60.904 402.372 62.3973 400.942 63.528C399.534 64.6587 397.732 65.224 395.534 65.224C393.892 65.224 392.43 64.872 391.15 64.168C389.892 63.4427 388.9 62.408 388.174 61.064C387.449 59.72 387.086 58.1307 387.086 56.296C387.086 54.4827 387.449 52.904 388.174 51.56C388.9 50.216 389.892 49.192 391.15 48.488C392.43 47.7627 393.892 47.4 395.534 47.4C397.22 47.4 398.67 47.7627 399.886 48.488C401.124 49.192 402.052 50.1307 402.67 51.304C403.31 52.456 403.63 53.6933 403.63 55.016C403.63 55.5493 403.577 56.1147 403.47 56.712H388.526C388.548 58.3333 388.878 59.6987 389.518 60.808C390.18 61.896 391.022 62.7067 392.046 63.24C393.092 63.752 394.233 64.008 395.47 64.008ZM395.534 48.584C394.276 48.584 393.124 48.8507 392.078 49.384C391.033 49.9173 390.18 50.728 389.518 51.816C388.878 52.904 388.548 54.248 388.526 55.848H402.222C402.308 54.248 402.041 52.904 401.422 51.816C400.804 50.7067 399.972 49.896 398.926 49.384C397.881 48.8507 396.75 48.584 395.534 48.584ZM449.721 42.44V43.656H443.225V65H441.753V43.656H435.289V42.44H449.721ZM471.202 47.272C473.25 47.272 474.914 47.912 476.194 49.192C477.474 50.472 478.114 52.36 478.114 54.856V65H476.674V54.92C476.674 52.8293 476.152 51.24 475.106 50.152C474.061 49.0427 472.632 48.488 470.818 48.488C468.941 48.488 467.426 49.1067 466.274 50.344C465.144 51.56 464.578 53.3627 464.578 55.752V65H463.138V41.32H464.578V52.2C465.005 50.5787 465.816 49.352 467.01 48.52C468.226 47.688 469.624 47.272 471.202 47.272ZM500.899 64.008C502.648 64.008 504.12 63.5707 505.315 62.696C506.51 61.8 507.235 60.584 507.491 59.048H508.995C508.675 60.904 507.8 62.3973 506.371 63.528C504.963 64.6587 503.16 65.224 500.963 65.224C499.32 65.224 497.859 64.872 496.579 64.168C495.32 63.4427 494.328 62.408 493.603 61.064C492.878 59.72 492.515 58.1307 492.515 56.296C492.515 54.4827 492.878 52.904 493.603 51.56C494.328 50.216 495.32 49.192 496.579 48.488C497.859 47.7627 499.32 47.4 500.963 47.4C502.648 47.4 504.099 47.7627 505.315 48.488C506.552 49.192 507.48 50.1307 508.099 51.304C508.739 52.456 509.059 53.6933 509.059 55.016C509.059 55.5493 509.006 56.1147 508.899 56.712H493.955C493.976 58.3333 494.307 59.6987 494.947 60.808C495.608 61.896 496.451 62.7067 497.475 63.24C498.52 63.752 499.662 64.008 500.899 64.008ZM500.963 48.584C499.704 48.584 498.552 48.8507 497.507 49.384C496.462 49.9173 495.608 50.728 494.947 51.816C494.307 52.904 493.976 54.248 493.955 55.848H507.651C507.736 54.248 507.47 52.904 506.851 51.816C506.232 50.7067 505.4 49.896 504.355 49.384C503.31 48.8507 502.179 48.584 500.963 48.584ZM563.662 43.016V65H562.222V45.544L553.838 65H552.526L544.142 45.672V65H542.702V43.016H544.334L553.198 63.176L561.998 43.016H563.662ZM578.587 47.624L585.115 63.08L591.163 47.624H592.763L582.683 73.192H581.019L584.347 64.904L576.987 47.624H578.587ZM608.327 48.936V60.104C608.327 61.4907 608.573 62.44 609.063 62.952C609.554 63.4427 610.418 63.688 611.655 63.688H613.479V65H611.495C609.895 65 608.722 64.6267 607.975 63.88C607.25 63.1333 606.887 61.8747 606.887 60.104V48.936H604.135V47.624H606.887V43.208H608.327V47.624H613.479V48.936H608.327ZM635.611 47.272C637.659 47.272 639.323 47.912 640.603 49.192C641.883 50.472 642.523 52.36 642.523 54.856V65H641.083V54.92C641.083 52.8293 640.56 51.24 639.515 50.152C638.47 49.0427 637.04 48.488 635.227 48.488C633.35 48.488 631.835 49.1067 630.683 50.344C629.552 51.56 628.987 53.3627 628.987 55.752V65H627.547V41.32H628.987V52.2C629.414 50.5787 630.224 49.352 631.419 48.52C632.635 47.688 634.032 47.272 635.611 47.272ZM657.244 42.376C657.244 42.0347 657.35 41.7573 657.564 41.544C657.798 41.3093 658.097 41.192 658.46 41.192C658.822 41.192 659.121 41.3093 659.356 41.544C659.59 41.7573 659.708 42.0347 659.708 42.376C659.708 42.7387 659.59 43.0373 659.356 43.272C659.121 43.4853 658.822 43.592 658.46 43.592C658.097 43.592 657.798 43.4853 657.564 43.272C657.35 43.0373 657.244 42.7387 657.244 42.376ZM659.196 47.624V65H657.756V47.624H659.196ZM682.237 47.4C684.434 47.4 686.247 47.976 687.677 49.128C689.106 50.2587 689.981 51.7627 690.301 53.64H688.797C688.541 52.104 687.815 50.888 686.621 49.992C685.426 49.096 683.954 48.648 682.205 48.648C680.946 48.648 679.794 48.9253 678.749 49.48C677.703 50.0347 676.861 50.888 676.221 52.04C675.581 53.192 675.261 54.6107 675.261 56.296C675.261 57.9813 675.581 59.4 676.221 60.552C676.861 61.704 677.703 62.5573 678.749 63.112C679.794 63.6667 680.946 63.944 682.205 63.944C683.954 63.944 685.426 63.496 686.621 62.6C687.815 61.704 688.541 60.488 688.797 58.952H690.301C689.981 60.8507 689.106 62.376 687.677 63.528C686.247 64.6587 684.434 65.224 682.237 65.224C680.594 65.224 679.133 64.872 677.853 64.168C676.594 63.4427 675.602 62.408 674.877 61.064C674.151 59.72 673.789 58.1307 673.789 56.296C673.789 54.4827 674.151 52.904 674.877 51.56C675.602 50.216 676.594 49.192 677.853 48.488C679.133 47.7627 680.594 47.4 682.237 47.4ZM709.82 47.4C711.633 47.4 713.095 47.8907 714.204 48.872C715.313 49.832 715.975 51.1547 716.188 52.84H714.812C714.684 51.6027 714.183 50.5787 713.308 49.768C712.455 48.936 711.292 48.52 709.82 48.52C708.519 48.52 707.495 48.84 706.748 49.48C706.023 50.12 705.66 50.9733 705.66 52.04C705.66 52.8293 705.873 53.4587 706.3 53.928C706.748 54.3973 707.281 54.7493 707.9 54.984C708.54 55.1973 709.425 55.4427 710.556 55.72C711.815 55.9973 712.828 56.2853 713.596 56.584C714.364 56.8827 715.015 57.352 715.548 57.992C716.081 58.632 716.348 59.5067 716.348 60.616C716.348 61.9813 715.857 63.0907 714.876 63.944C713.895 64.7973 712.604 65.224 711.004 65.224C709.084 65.224 707.505 64.744 706.268 63.784C705.052 62.8027 704.327 61.4693 704.092 59.784H705.532C705.66 61.0213 706.193 62.056 707.132 62.888C708.092 63.6987 709.393 64.104 711.036 64.104C712.273 64.104 713.233 63.784 713.916 63.144C714.62 62.4827 714.972 61.6293 714.972 60.584C714.972 59.752 714.748 59.0907 714.3 58.6C713.852 58.088 713.287 57.7147 712.604 57.48C711.943 57.2453 711.057 57 709.948 56.744C708.689 56.4453 707.687 56.1573 706.94 55.88C706.215 55.5813 705.585 55.1333 705.052 54.536C704.54 53.9173 704.284 53.0853 704.284 52.04C704.284 50.632 704.785 49.512 705.788 48.68C706.791 47.8267 708.135 47.4 709.82 47.4ZM731.648 62.792V65H729.376V62.792H731.648Z" fill="#F8F8F8"/>
<defs>
<filter id="filter0_f_449_717" x="0.939941" y="17.6406" width="917.292" height="74.2559" filterUnits="userSpaceOnUse" color-interpolation-filters="sRGB">
<feFlood flood-opacity="0" result="BackgroundImageFix"/>
<feBlend mode="normal" in="SourceGraphic" in2="BackgroundImageFix" result="shape"/>
<feGaussianBlur stdDeviation="2.5" result="effect1_foregroundBlur_449_717"/>
</filter>
</defs>
</svg>
